<?xml version="1.0" encoding="UTF-8"?><svg id="Layer_1" xmlns="http://www.w3.org/2000/svg" viewBox="0 0 411 411"><defs><style>.cls-1{fill:#fff;}.cls-2{fill:#61db92;}</style></defs><path class="cls-2" d="m378.74,54.78c-8.04-10.21-17.44-19.29-27.92-27C327.03,10.27,297.66-.1,265.92-.1h-123.82C69.13-.1,8.7,54.61-.33,125.17c-.77,6-1.17,12.12-1.17,18.33v123.82c0,73.18,58.31,143.59,125.88,142.5h0c16.34-.09,32.78-8.48,47.69-16.91l78.38-44.33c4.56-2.58,10.26-2.56,14.58.4,5.27,3.6,7.25,10.29,4.97,16.1l-17.06,43.43c-.45,1.16.4,2.41,1.64,2.41h11.32c79.3,0,143.59-64.29,143.59-143.59v-123.82c0-33.46-11.5-64.28-30.76-88.72Z"/><g><path class="cls-1" d="m278.57,205.06c0-20.09-.05-40.18.05-60.27.01-2.81.56-5.65,1.17-8.4,1.06-4.83,4.5-7.51,9.14-8.02,5.37-.58,10.83-.62,16.24-.55,11.5.13,22.99-.56,34.45,1.92,12.24,2.66,21.98,8.95,29.95,18.2,8.47,9.84,12.31,21.5,12.34,34.43.04,15.88.33,31.77-.06,47.64-.59,23.6-14.85,41.83-36.84,49.4-5.9,2.03-12.46,2.66-18.76,2.91-11.38.45-22.8.16-34.2.12-7.92-.03-11.47-2.97-12.78-10.66-.43-2.53-.66-5.12-.67-7.68-.05-19.68-.03-39.36-.04-59.04Zm23.55.44c0,16.14,0,32.28,0,48.42,0,6.37.16,6.53,6.69,6.53,5.83,0,11.66.05,17.49-.02,17.32-.2,32.91-12.99,32.85-32.58-.05-15.33.28-30.66-.19-45.97-.15-4.99-1.31-10.46-3.7-14.77-6.09-10.97-16.03-16.42-28.65-16.65-6.24-.12-12.48-.05-18.72-.03-5.3.02-5.75.46-5.76,5.85-.02,16.41,0,32.82-.02,49.23Z"/><path class="cls-1" d="m259.71,204.67c-.75,12.29-1.15,24.07-2.28,35.78-1.2,12.51-8.01,22.32-17.01,30.52-11.05,10.07-24.57,14.47-39.25,13.7-21.81-1.14-38.64-10.75-48.92-30.88-4.91-9.61-5.29-19.82-5.43-30.01-.24-16.93-.4-33.94.85-50.81.97-13.18,7.41-24.51,17.59-33.24,13.96-11.97,30.04-15.42,48.13-12.63,14.12,2.18,24.98,9.34,33.87,19.75,5.38,6.29,9.28,13.79,10.04,22.24,1.08,11.99,1.65,24.02,2.4,35.58Zm-89.6.79s.02,0,.04,0c0,9.09-.31,18.2.14,27.27.21,4.23.96,8.91,3.03,12.48,6.19,10.62,15.94,17.18,28.17,17.37,18.65.28,33.98-11.45,33.91-31.95-.05-17.23-.11-34.47-.03-51.7.11-24.27-26.75-37.68-47.39-27.39-11.92,5.94-18.05,15.91-17.89,29.49.1,8.14.02,16.28.02,24.43Z"/><path class="cls-1" d="m25.98,204.89c0-7.87-.05-15.75,0-23.62.17-22.85,10.59-39.65,30.67-50.13,8.4-4.38,17.91-5.43,27.35-4.99,11.11.52,21.76,3.07,30.85,9.9,2.54,1.91,4.68,4.55,6.44,7.23,2.84,4.34,2.11,9.98-1.21,13.1-4.67,4.39-10.26,4.63-15.64,1.35-5.01-3.05-10.13-6.28-15.63-8.12-12.38-4.13-22.78.35-31.71,9.1-5.66,5.55-7.95,12.73-8.11,20.27-.37,17.5-.38,35.02-.08,52.53.39,22.76,24.56,36.02,41.87,29.46,1.63-.62,3.39-.9,5.02-1.53,7.86-3.06,11.22-8.62,10.13-17.19-.59-4.68-.07-9.49-.12-14.24-.05-4.98-.93-5.76-6.04-5.92-5.28-.16-10.59-.1-15.82-.73-5.25-.64-8.9-5.25-8.8-10.13.11-5.56,4.19-10.65,9.65-10.81,11.39-.32,22.8-.4,34.19.02,6.72.24,10.26,4.39,10.35,11.24.17,13.16.27,26.34-.05,39.5-.17,6.95-2.76,13.1-8.11,18.04-13.69,12.62-29.7,17.16-47.98,14.61-17.96-2.51-31.67-11.41-40.56-27.21-4.08-7.25-6.65-15.12-6.64-23.63.01-9.37,0-18.73,0-28.1h-.02Z"/></g></svg>