<?xml version="1.0" encoding="UTF-8"?><svg id="Layer_1" xmlns="http://www.w3.org/2000/svg" viewBox="0 0 1203 411"><defs><style>.cls-1{fill:none;}.cls-2{fill:#61db92;}</style></defs><path class="cls-1" d="m729.69,137.38c-6.71.24-13.9.39-21.07-.12-.35-.02-.68-.04-.99-.04-1.5,0-2.54.29-3.17.89-.78.75-1.1,2.13-1.03,4.46.13,4.51.1,9.08.08,13.51-.01,2-.02,3.99-.02,5.99v5.93c0,4.51-.01,9.03,0,13.54q.02,5.99,6.22,6.02c1.57,0,3.14.04,4.72.08,4.01.09,8.15.18,12.14-.23,5.23-.53,9.73-1.64,13.38-3.28,9.45-4.26,14.89-16.61,12.37-28.11-2.52-11.55-11.6-19.04-22.62-18.65Z"/><path class="cls-1" d="m704.42,269.56c.69.69,1.88,1.01,3.67.99,1.83-.03,3.67-.04,5.5-.04,2.29,0,4.57.02,6.81.03,5.95.04,12.1.08,18.12-.16,4.9-.2,9.61-1.14,13.6-2.71,6.29-2.48,11.12-8.34,13.26-16.06,2.26-8.17.95-16.5-3.5-22.28-6.1-7.93-14.48-12.04-25.63-12.55-5.85-.27-11.82-.22-17.6-.18-3.55.03-7.22.06-10.84.01-1.66-.02-2.78.29-3.44.96-.66.66-.97,1.77-.94,3.4.07,5.02.06,10.12.05,15.06,0,2.48,0,4.96,0,7.44h0c0,2.2,0,4.4.02,6.59.02,5.21.04,10.6-.06,15.9-.03,1.74.28,2.92.96,3.6Z"/><path class="cls-1" d="m329.38,213.75c-.08,7.78-.15,15.82.23,23.69.31,6.3,1.51,11.31,3.59,14.87,7.7,13.22,19.68,20.61,33.74,20.83,12.02.2,22.71-3.74,30.11-11.06,6.92-6.83,10.55-16.23,10.52-27.17v-1.68c-.07-20.26-.13-41.2-.04-61.8.06-12.73-6.2-23.95-17.18-30.77-11.94-7.42-27.1-8.18-39.56-1.96-14.4,7.19-21.61,19.06-21.41,35.31.08,6.91.06,13.93.04,20.71,0,2.76-.02,5.53-.02,8.29h.04v1c0,3.25-.03,6.49-.06,9.74Z"/><path class="cls-1" d="m559.28,175.07c-.2-6.53-1.81-12.98-4.42-17.68-7.18-12.94-18.73-19.64-34.32-19.94-6.07-.11-12.25-.08-18.23-.06l-4.73.02c-5.95.02-6.06.13-6.07,6.19-.01,11.59-.02,23.19-.02,34.78,0,8.56,0,17.11,0,25.67h0s0,59.45,0,59.45c0,3.48.04,5.48.8,6.23.77.75,2.84.79,6.42.79,2.04,0,4.09,0,6.13,0,5.03.01,10.23.02,15.34-.04,19.13-.22,39.42-13.97,39.34-39.01-.02-6,.01-12.1.04-18,.06-12.6.12-25.63-.27-38.42Z"/><path class="cls-1" d="m1049.93,27H153.07c-69.51,0-126.07,56.55-126.07,126.07v104.87c0,39.81,19.14,77.72,51.19,101.43,30.24,22.37,71.34,24.63,104.7,5.76l78.72-44.53c4.97-2.82,11.18-2.19,15.5,1.56,4.32,3.75,5.8,9.81,3.71,15.13l-18.34,46.72h787.46c69.51,0,126.07-56.55,126.07-126.07v-104.87c0-69.51-56.55-126.07-126.07-126.07Zm-770.65,233.16c-.22,9.09-3.68,16.78-10.28,22.86-13.73,12.65-29.86,19.03-48.07,19.03-3.8,0-7.69-.28-11.66-.83-22.65-3.16-39.65-14.57-50.54-33.9-5.51-9.78-8.3-19.71-8.28-29.5.01-8.01,0-16.01,0-24.02l-.03-10.48c0-3.03,0-6.07-.01-9.1-.01-6.52-.03-13.27.02-19.91.21-28.31,13.06-49.31,38.19-62.43,9.27-4.84,20.43-6.88,34.1-6.24,15.79.74,28.36,4.78,38.43,12.35,2.82,2.12,5.56,5.19,8.14,9.12,3.66,5.58,2.95,13.05-1.64,17.36-5.92,5.56-13.16,6.19-20.41,1.78l-1.16-.71c-5.7-3.48-11.6-7.09-17.84-9.17-13.44-4.48-25.84-.9-37.92,10.94-6.2,6.08-9.45,14.22-9.66,24.19-.44,20.89-.47,42.57-.1,64.46.21,12.18,6.3,23.21,16.72,30.28,10.28,6.97,23.05,8.88,33.34,4.98,1.03-.39,2.09-.67,3.11-.94,1.07-.28,2.07-.55,3.04-.93,9.33-3.64,13.08-10.01,11.81-20.05-.49-3.88-.37-7.87-.25-11.72.06-1.93.12-3.93.1-5.88-.05-5.52-.65-6.1-6.44-6.28-1.54-.05-3.08-.08-4.63-.11-4.89-.1-9.95-.2-14.89-.8-6.69-.81-11.82-6.72-11.69-13.45.15-7.66,5.9-14.06,12.83-14.25,15.77-.44,29.52-.43,42.04.02,8.57.31,13.55,5.7,13.67,14.79.19,14.68.35,31.74-.06,48.53Zm160.13-57.05c-.28,4.65-.53,9.24-.77,13.78-.55,10.4-1.07,20.21-2.03,30.18-1.33,13.86-8.27,26.33-21.2,38.11-12.39,11.29-27.88,17.19-44.98,17.19-1.31,0-2.62-.03-3.94-.1-28.12-1.47-48.61-14.4-60.91-38.46-5.94-11.63-6.59-23.77-6.78-37.29-.32-22.14-.46-42.13,1.05-62.47,1.17-15.84,8.76-30.19,21.95-41.5,16.6-14.24,36.2-19.39,59.9-15.74,16.42,2.53,30.22,10.57,42.2,24.59,7.46,8.72,11.68,18.1,12.56,27.87.94,10.36,1.56,20.83,2.17,30.94.26,4.3.51,8.56.79,12.77v.06s0,.06,0,.06Zm149.97,31.09c-.72,28.91-17.88,51.93-45.91,61.58-7.86,2.71-16.59,3.36-23.33,3.62-5.93.23-11.92.3-17.88.3-4.57,0-9.11-.04-13.58-.08-3.52-.03-7.05-.06-10.57-.08-10.16-.04-14.99-4.07-16.67-13.92-.54-3.19-.82-6.42-.83-9.6-.05-17.14-.04-34.56-.04-51.41v-38.97c-.02-18.39-.03-37.41.06-56.12.02-3.69.76-7.37,1.46-10.53,1.34-6.06,5.74-9.93,12.09-10.62,6.69-.73,13.6-.76,20.06-.69,2.91.03,5.81.02,8.71.01,11.07-.04,22.51-.08,33.79,2.37,14.72,3.2,26.93,10.61,37.32,22.68,10.17,11.81,15.35,26.25,15.4,42.92.01,5.21.05,10.43.09,15.64.1,14.06.2,28.59-.16,42.88Zm46.97,66.41c-2.04.86-4.17,1.29-6.27,1.29-2.49,0-4.94-.61-7.13-1.81-4.03-2.21-6.81-6.2-7.62-10.96-.43-2.52-.63-5.25-.64-8.62-.03-18.41-.03-36.82-.03-55.23v-44.79c-.01-18.67-.02-37.97.02-56.96.02-10.03,4.28-15.56,13.4-17.41,3.75-.76,7.53-.02,10.66,2.1,3.06,2.06,5.11,5.2,5.79,8.84.57,3.07.86,5.96.86,8.61.03,33.55.03,67.11.04,100.66,0,19.11,0,38.21,0,57.32,0,6.49-1.07,13.59-9.07,16.97Zm155.73-33.94c-6.02,13.23-15.55,22.57-28.32,27.74-4.88,1.98-12.22,4.64-19.48,4.9-8.4.3-16.88.39-25.31.39-5.96,0-11.88-.04-17.73-.09-3.82-.03-7.64-.06-11.46-.07-9.88-.04-16.28-6.42-16.3-16.24-.03-19.07-.03-38.14-.02-57.2v-21.26s-.01-.99-.01-.99v-22.41c0-18.68-.01-37.36,0-56.03.01-11.73,6.05-17.7,17.95-17.74,3.05-.01,6.1-.04,9.15-.06,8.15-.07,16.57-.14,24.86.1,25.32.74,43.12,11.48,52.91,31.92,9.62,20.1,5.35,41.69-10.88,55.01-1.9,1.56-2.8,2.79-2.7,3.67.11.88,1.29,1.86,3.51,2.91,14.03,6.62,23.08,16.79,26.88,30.23,3.3,11.65,2.26,23.5-3.07,35.23Zm137.38,22.9c-1.65,5.35-7.82,9.88-13.47,9.9-14.53.05-30.35.09-46.71.09-13.54,0-27.43-.03-41.26-.12-8.9-.05-14.44-6.32-14.47-16.35-.05-18-.05-36.29-.04-53.98,0-7.16,0-14.33,0-21.49,0-1.67,0-3.33,0-5v-19.86c0-19.87,0-39.74,0-59.6,0-7.26,2.62-12.4,7.79-15.27,4.96-2.76,10.32-3.01,14.7-.68,4.76,2.53,7.81,7.69,8.37,14.16.15,1.79.13,3.59.12,5.34,0,.58-.01,1.16-.01,1.74v49.12c0,28.28,0,56.56.01,84.84,0,8.02.08,8.09,8.03,8.1,6.65,0,13.31,0,19.97,0,14.1-.01,28.67-.02,43.01.05,5.01.03,9.42,2.13,12.09,5.77,2.68,3.65,3.37,8.48,1.89,13.26Zm126.94-10.67c-4.11,7.2-10.6,12.8-19.83,17.11-9.19,4.29-19.44,6.45-30.52,6.45-1.45,0-2.91-.04-4.38-.11-20.55-1.03-35.95-7.63-47.08-20.19-13.25-14.95-17.14-32.31-11.57-51.61,3.11-10.75,9.47-19.6,19.45-27.07,2.48-1.85,3.92-3.12,3.96-4.13.04-1.04-1.45-2.56-3.7-4.52-11.66-10.2-17.39-22.9-17.04-37.75.42-17.64,8.9-32.23,24.51-42.19,12.75-8.13,27.72-10.84,45.78-8.29,14.67,2.07,25.08,7.26,32.77,16.33,5.97,7.04,6.32,14.02,1.02,20.19-5.36,6.23-15.04,6.73-22.05,1.13-9.01-7.2-16.93-10.22-25.7-9.78-10.82.54-22.28,8.86-24.52,17.81-3.25,12.99,1.82,25.16,12.61,30.29,4.51,2.14,10.08,2.49,15.47,2.82l.71.04c4.52.28,9.15.23,13.62.18,3.06-.03,6.21-.07,9.32,0,4.6.1,9.77.82,13.31,5.39,3.83,4.94,4.38,10,1.71,15.47-2.41,4.92-6.6,7.58-12.45,7.9-3.85.21-7.77.16-11.55.11-1.67-.02-3.33-.04-5-.04h-.89l-.06-.53c-2.09.2-4.21.36-6.26.52-5.26.4-10.69.81-15.86,1.91-11.23,2.39-19.14,11.56-20.63,23.93-1.54,12.71,3.49,23.08,13.8,28.44,15.06,7.83,34.17,5.62,45.46-5.26,3.25-3.13,7.23-5.5,10.9-6.49,5.39-1.45,10.85,1.11,14.25,6.67,3.05,5,3.2,10.42.43,15.28Z"/><path class="cls-2" d="m768.27,201.2c-2.22-1.05-3.4-2.03-3.51-2.91-.11-.88.8-2.12,2.7-3.67,16.23-13.31,20.51-34.91,10.88-55.01-9.78-20.44-27.58-31.18-52.91-31.92-8.29-.24-16.72-.17-24.86-.1-3.05.03-6.1.05-9.15.06-11.9.04-17.94,6.01-17.95,17.74-.02,18.68-.02,37.36-.01,56.03v22.41s.02.99.02.99v21.26c0,19.07-.02,38.14.02,57.2.02,9.82,6.41,16.19,16.3,16.24,3.82.02,7.64.04,11.46.07,5.84.04,11.77.09,17.73.09,8.42,0,16.91-.09,25.31-.39,7.26-.26,14.59-2.92,19.48-4.9,12.77-5.17,22.3-14.5,28.32-27.74,5.34-11.73,6.37-23.58,3.07-35.23-3.8-13.44-12.85-23.61-26.88-30.23Zm-64.76,48.86c0-2.2-.02-4.39-.02-6.59h0c0-2.48,0-4.96,0-7.44.01-4.93.02-10.04-.05-15.06-.02-1.63.28-2.74.94-3.4.66-.66,1.77-.98,3.44-.96,3.62.04,7.29.02,10.84-.01,5.78-.04,11.75-.09,17.6.18,11.15.51,19.53,4.61,25.63,12.55,4.45,5.78,5.75,14.11,3.5,22.28-2.13,7.72-6.97,13.57-13.26,16.06-3.99,1.58-8.7,2.52-13.6,2.71-6.03.24-12.18.2-18.12.16-2.24-.01-4.52-.03-6.81-.03-1.83,0-3.67,0-5.5.04-1.8.03-2.98-.3-3.67-.99-.68-.68-1-1.86-.96-3.6.1-5.3.08-10.69.06-15.9Zm36.43-65.92c-3.65,1.64-8.15,2.75-13.38,3.28-3.99.41-8.13.31-12.14.23-1.57-.04-3.15-.07-4.72-.08q-6.19-.03-6.22-6.02c-.02-4.51-.01-9.03,0-13.54v-5.93c0-2,.01-3.99.03-5.99.03-4.43.05-9.01-.08-13.51-.07-2.34.25-3.71,1.03-4.46.62-.6,1.66-.89,3.17-.89.31,0,.64.01.99.04,7.17.51,14.36.36,21.07.12,11.03-.4,20.1,7.1,22.62,18.65,2.51,11.5-2.92,23.85-12.37,28.11Z"/><path class="cls-2" d="m589.46,175.67c-.04-16.67-5.22-31.11-15.4-42.92-10.39-12.06-22.59-19.48-37.32-22.68-11.28-2.45-22.72-2.41-33.79-2.37-2.9,0-5.81.02-8.71-.01-6.46-.08-13.37-.04-20.06.69-6.34.69-10.75,4.56-12.09,10.62-.7,3.16-1.44,6.84-1.46,10.53-.09,18.71-.08,37.73-.07,56.12v38.97c0,16.85,0,34.27.05,51.41,0,3.18.29,6.4.83,9.6,1.68,9.85,6.51,13.88,16.67,13.92,3.52.01,7.05.04,10.57.08,4.48.04,9.02.08,13.58.08,5.95,0,11.95-.07,17.88-.3,6.73-.27,15.46-.92,23.33-3.62,28.03-9.65,45.19-32.67,45.91-61.58.35-14.29.25-28.83.16-42.88-.04-5.21-.07-10.43-.09-15.64Zm-29.94,55.82c.08,25.04-20.21,38.78-39.34,39.01-5.11.06-10.31.05-15.34.04-2.04,0-4.09,0-6.13,0-3.58,0-5.65-.04-6.42-.79-.76-.74-.8-2.75-.8-6.23v-59.45s0,0,0,0c0-8.56,0-17.11,0-25.67,0-11.59,0-23.19.02-34.78,0-6.06.12-6.17,6.07-6.19l4.73-.02c5.98-.03,12.16-.06,18.23.06,15.59.29,27.14,7,34.32,19.94,2.61,4.7,4.22,11.15,4.42,17.68.39,12.79.33,25.82.27,38.42-.03,5.9-.06,12-.04,18Z"/><path class="cls-2" d="m438.63,190.21c-.61-10.12-1.23-20.58-2.17-30.94-.88-9.77-5.11-19.15-12.56-27.87-11.98-14.02-25.78-22.06-42.2-24.59-23.7-3.65-43.3,1.49-59.9,15.74-13.19,11.31-20.78,25.67-21.95,41.5-1.5,20.34-1.36,40.33-1.05,62.47.19,13.53.84,25.67,6.78,37.29,12.29,24.05,32.79,36.99,60.91,38.46,1.33.07,2.64.1,3.94.1,17.1,0,32.59-5.9,44.98-17.19,12.93-11.78,19.87-24.25,21.2-38.11.96-9.97,1.48-19.79,2.03-30.18.24-4.55.48-9.13.77-13.78v-.06s0-.06,0-.06c-.28-4.21-.53-8.47-.79-12.77Zm-109.23,12.81c0-2.76,0-5.53.02-8.29.02-6.79.04-13.81-.04-20.71-.2-16.24,7.01-28.12,21.41-35.31,12.46-6.22,27.62-5.47,39.56,1.96,10.97,6.82,17.23,18.04,17.18,30.77-.09,20.6-.03,41.55.03,61.8v1.68c.04,10.94-3.6,20.34-10.52,27.17-7.4,7.31-18.09,11.26-30.11,11.06-14.06-.21-26.04-7.61-33.74-20.83-2.07-3.56-3.28-8.56-3.59-14.87-.38-7.87-.31-15.92-.23-23.69.03-3.25.06-6.49.06-9.74v-1h-.04Z"/><path class="cls-2" d="m265.67,196.84c-12.52-.45-26.27-.46-42.04-.02-6.92.19-12.67,6.59-12.83,14.25-.13,6.73,5,12.64,11.69,13.45,4.94.6,10,.7,14.89.8,1.54.03,3.09.06,4.63.11,5.79.17,6.39.76,6.44,6.28.02,1.95-.04,3.94-.1,5.88-.12,3.85-.24,7.84.25,11.72,1.27,10.04-2.49,16.41-11.81,20.05-.97.38-1.97.65-3.04.93-1.02.27-2.08.56-3.11.94-10.29,3.9-23.06,1.99-33.34-4.98-10.42-7.06-16.51-18.1-16.72-30.28-.37-21.88-.34-43.57.1-64.46.21-9.98,3.46-18.12,9.66-24.19,12.08-11.84,24.48-15.42,37.92-10.94,6.23,2.08,12.13,5.68,17.84,9.17l1.16.71c7.24,4.41,14.49,3.78,20.41-1.78,4.59-4.32,5.3-11.78,1.64-17.36-2.58-3.93-5.31-7-8.14-9.12-10.07-7.57-22.64-11.61-38.43-12.35-13.67-.64-24.82,1.4-34.1,6.24-25.13,13.12-37.98,34.12-38.19,62.43-.05,6.64-.04,13.38-.02,19.91,0,3.03.01,6.07.01,9.1l.03,10.48c0,8.01,0,16.01,0,24.02-.01,9.79,2.77,19.72,8.28,29.5,10.89,19.34,27.89,30.74,50.54,33.9,3.98.56,7.86.83,11.66.83,18.21,0,34.34-6.37,48.07-19.03,6.6-6.08,10.06-13.78,10.28-22.86.41-16.79.24-33.86.06-48.53-.12-9.09-5.1-14.48-13.67-14.79Z"/><path class="cls-2" d="m1041.72,256.94c-3.67.99-7.65,3.35-10.9,6.49-11.28,10.87-30.4,13.08-45.46,5.26-10.31-5.36-15.35-15.73-13.8-28.44,1.5-12.37,9.41-21.54,20.63-23.93,5.17-1.1,10.6-1.51,15.86-1.91,2.06-.16,4.17-.32,6.26-.52l.06.53h.89c1.67,0,3.33.02,5,.04,3.78.05,7.69.1,11.55-.11,5.85-.32,10.04-2.98,12.45-7.9,2.68-5.47,2.12-10.53-1.71-15.47-3.54-4.56-8.71-5.28-13.31-5.39-3.11-.07-6.27-.03-9.32,0-4.48.05-9.11.1-13.62-.18l-.71-.04c-5.38-.33-10.95-.68-15.47-2.82-10.8-5.13-15.87-17.3-12.61-30.29,2.24-8.95,13.7-17.27,24.52-17.81,8.77-.43,16.69,2.58,25.7,9.78,7,5.6,16.69,5.11,22.05-1.13,5.3-6.17,4.95-13.15-1.02-20.19-7.69-9.07-18.1-14.26-32.77-16.33-18.06-2.55-33.04.16-45.78,8.29-15.62,9.96-24.09,24.55-24.51,42.19-.35,14.85,5.38,27.55,17.04,37.75,2.25,1.97,3.74,3.49,3.7,4.52-.04,1.01-1.48,2.28-3.96,4.13-9.98,7.47-16.34,16.32-19.45,27.07-5.58,19.3-1.69,36.66,11.57,51.61,11.13,12.55,26.53,19.16,47.08,20.19,1.47.07,2.93.11,4.38.11,11.08,0,21.33-2.17,30.52-6.45,9.24-4.31,15.72-9.91,19.83-17.11,2.77-4.86,2.62-10.28-.43-15.28-3.4-5.57-8.86-8.12-14.25-6.67Z"/><path class="cls-2" d="m915.48,270.53c-14.34-.08-28.91-.07-43.01-.05-6.66,0-13.32,0-19.97,0-7.95,0-8.03-.08-8.03-8.1,0-28.28,0-56.56,0-84.84v-49.12c0-.58,0-1.16,0-1.74.02-1.75.04-3.55-.12-5.34-.56-6.47-3.61-11.63-8.37-14.16-4.38-2.33-9.74-2.08-14.7.68-5.17,2.88-7.79,8.01-7.79,15.27,0,19.87,0,39.74,0,59.6v19.86c0,1.67,0,3.33,0,5,0,7.16,0,14.33,0,21.49,0,17.69,0,35.99.04,53.98.03,10.03,5.57,16.29,14.47,16.35,13.83.09,27.73.12,41.26.12,16.36,0,32.18-.04,46.71-.09,5.65-.02,11.82-4.55,13.47-9.9,1.47-4.78.78-9.61-1.89-13.26-2.67-3.64-7.08-5.74-12.09-5.77Z"/><path class="cls-2" d="m645.38,125.65c0-2.64-.29-5.54-.86-8.61-.67-3.64-2.73-6.78-5.79-8.84-3.13-2.11-6.91-2.85-10.66-2.1-9.12,1.85-13.38,7.38-13.4,17.41-.04,18.99-.03,38.29-.02,56.96v44.79c0,18.41,0,36.82.04,55.23,0,3.37.21,6.1.64,8.62.82,4.76,3.59,8.76,7.62,10.96,2.2,1.2,4.64,1.81,7.13,1.81,2.1,0,4.23-.43,6.27-1.29,8-3.38,9.07-10.47,9.07-16.97,0-19.11,0-38.21,0-57.32,0-33.55,0-67.11-.04-100.66Z"/><path class="cls-2" d="m1049.93,0H153.07C68.67,0,0,68.67,0,153.07v104.87c0,24.34,5.86,48.56,16.94,70.06,10.72,20.79,26.34,39.14,45.19,53.08,38.8,28.7,91.42,31.67,134.05,7.55l45.6-25.79-11.68,29.73c-1.63,4.16-1.1,8.85,1.41,12.54,2.51,3.69,6.69,5.9,11.15,5.9h807.26c84.4,0,153.07-68.67,153.07-153.07v-104.87c0-84.4-68.67-153.07-153.07-153.07Zm126.07,257.93c0,69.51-56.55,126.07-126.07,126.07H262.48l18.34-46.72c2.09-5.32.6-11.38-3.71-15.13-4.32-3.75-10.52-4.37-15.5-1.56l-78.72,44.53c-33.36,18.87-74.46,16.61-104.7-5.76-32.05-23.7-51.19-61.62-51.19-101.43v-104.87c0-69.51,56.55-126.07,126.07-126.07h896.87c69.51,0,126.07,56.55,126.07,126.07v104.87Z"/></svg>