<?xml version="1.0" encoding="UTF-8"?><svg id="Layer_1" xmlns="http://www.w3.org/2000/svg" viewBox="0 0 512 512"><path d="m307.71,173.24c-5.56,0-10.96-2.9-13.92-8.08-4.38-7.68-1.7-17.45,5.98-21.82l43.81-24.97-25.86-45.37c-4.38-7.68-1.7-17.45,5.98-21.82,7.67-4.38,17.45-1.7,21.82,5.98l33.78,59.27c4.38,7.68,1.7,17.45-5.98,21.82l-57.71,32.89c-2.5,1.42-5.22,2.1-7.91,2.1Z"/><path d="m256,462.93c-104.77,0-190-85.23-190-190s85.23-190,190-190c32.16,0,63.95,8.19,91.93,23.68,7.73,4.28,10.53,14.02,6.25,21.75-4.28,7.73-14.02,10.53-21.75,6.24-23.24-12.87-49.67-19.68-76.42-19.68-87.12,0-158,70.88-158,158s70.88,158,158,158,158-70.88,158-158c0-8.84,7.16-16,16-16s16,7.16,16,16c0,104.77-85.23,190-190,190Z"/><g><path d="m215.82,266.95c4.78,0,8.37-1.54,10.77-4.63,2.39-3.09,3.59-7.36,3.59-12.81,0-4.62-1.25-8.48-3.75-11.6-2.5-3.12-5.95-4.67-10.35-4.67-3.62,0-6.65,1.36-9.1,4.09-2.45,2.73-3.67,6.29-3.67,10.68h-23.03l-.17-.5c-.28-9.57,3.09-17.41,10.1-23.53,7.01-6.12,15.63-9.18,25.87-9.18,11.52,0,20.71,2.98,27.58,8.93,6.87,5.95,10.31,14.44,10.31,25.45,0,5.62-1.5,10.76-4.51,15.44-3,4.67-7.09,8.32-12.27,10.93,5.84,2.39,10.36,6.04,13.56,10.93,3.2,4.9,4.8,10.82,4.8,17.77,0,11.07-3.71,19.76-11.14,26.08-7.43,6.31-16.93,9.47-28.5,9.47-10.07,0-18.86-2.99-26.37-8.97-7.51-5.98-11.13-14.51-10.85-25.58l.17-.5h22.95c0,4.73,1.34,8.69,4.01,11.89,2.67,3.2,6.04,4.8,10.1,4.8,4.78,0,8.65-1.64,11.6-4.92,2.95-3.28,4.42-7.48,4.42-12.6,0-6.56-1.38-11.39-4.13-14.48-2.75-3.09-6.75-4.63-11.98-4.63h-12.27v-17.86h12.27Z"/><path d="m343.66,293.99c0,14.3-3.42,25.51-10.26,33.63-6.84,8.12-15.86,12.18-27.04,12.18s-20.46-4.06-27.33-12.18c-6.87-8.12-10.31-19.33-10.31-33.63v-33.3c0-14.19,3.42-25.38,10.26-33.59,6.84-8.21,15.91-12.31,27.2-12.31s20.29,4.1,27.16,12.31c6.87,8.21,10.31,19.4,10.31,33.59v33.3Zm-23.62-35.38c0-8.01-1.24-14.24-3.71-18.69-2.48-4.45-5.86-6.68-10.14-6.68s-7.8,2.23-10.22,6.68c-2.42,4.45-3.63,10.68-3.63,18.69v37.3c0,8.18,1.22,14.48,3.67,18.9,2.45,4.42,5.9,6.63,10.35,6.63s7.64-2.21,10.06-6.63,3.63-10.72,3.63-18.9v-37.3Z"/></g></svg>