<?xml version="1.0" encoding="UTF-8"?><svg id="Layer_1" xmlns="http://www.w3.org/2000/svg" viewBox="0 0 846.68 846.68"><path d="m423.34,811.4c214.32,0,388.06-173.74,388.06-388.06S637.66,35.28,423.34,35.28,35.28,209.02,35.28,423.34s173.74,388.06,388.06,388.06Zm-48.51-485.08v194.03c0,26.83-21.68,48.51-48.51,48.51s-48.51-21.68-48.51-48.51v-194.03c0-26.83,21.68-48.51,48.51-48.51s48.51,21.68,48.51,48.51Zm194.03,0v194.03c0,26.83-21.68,48.51-48.51,48.51s-48.51-21.68-48.51-48.51v-194.03c0-26.83,21.68-48.51,48.51-48.51s48.51,21.68,48.51,48.51Z"/></svg>