<?xml version="1.0" encoding="UTF-8"?><svg id="Layer_1" xmlns="http://www.w3.org/2000/svg" viewBox="0 0 846.68 846.68"><path d="m35.28,423.34c0-214.32,173.74-388.06,388.06-388.06s388.06,173.74,388.06,388.06-173.74,388.06-388.06,388.06S35.28,637.66,35.28,423.34Zm285.44-165.08c-11.52,6.37-18.65,18.65-18.65,31.68v266.79c0,13.19,7.12,25.32,18.65,31.68,11.52,6.37,25.47,6.22,36.84-.76l218.29-133.4c10.76-6.67,17.43-18.34,17.43-31.08s-6.67-24.41-17.43-31.08l-218.29-133.4c-11.22-6.82-25.32-7.12-36.84-.76v.3Z"/></svg>