<?xml version="1.0" encoding="utf-8"?>
<!-- Generator: Adobe Illustrator 27.2.0, SVG Export Plug-In . SVG Version: 6.00 Build 0)  -->
<svg version="1.1" id="Layer_1" xmlns="http://www.w3.org/2000/svg" xmlns:xlink="http://www.w3.org/1999/xlink" x="0px" y="0px"
	 viewBox="0 0 846.7 846.7" style="enable-background:new 0 0 846.7 846.7;" xml:space="preserve">
<style type="text/css">
	.st0{fill:none;}
</style>
<path d="M423.3,811.4c214.3,0,388.1-173.7,388.1-388.1S637.7,35.3,423.3,35.3S35.3,209,35.3,423.3S209,811.4,423.3,811.4z
	 M374.8,326.3v194c0,26.8-21.7,48.5-48.5,48.5c-26.8,0-48.5-21.7-48.5-48.5v-194c0-26.8,21.7-48.5,48.5-48.5
	C353.2,277.8,374.8,299.5,374.8,326.3z M568.9,326.3v194c0,26.8-21.7,48.5-48.5,48.5c-26.8,0-48.5-21.7-48.5-48.5v-194
	c0-26.8,21.7-48.5,48.5-48.5C547.2,277.8,568.9,299.5,568.9,326.3z"/>
</svg>
