<?xml version="1.0" encoding="utf-8"?>
<!-- Generator: Adobe Illustrator 27.2.0, SVG Export Plug-In . SVG Version: 6.00 Build 0)  -->
<svg version="1.1" id="Layer_1" xmlns="http://www.w3.org/2000/svg" xmlns:xlink="http://www.w3.org/1999/xlink" x="0px" y="0px"
	 viewBox="0 0 846.7 846.7" style="enable-background:new 0 0 846.7 846.7;" xml:space="preserve">
<style type="text/css">
	.st0{fill:none;}
</style>
<path d="M35.3,423.3C35.3,209,209,35.3,423.3,35.3S811.4,209,811.4,423.3S637.7,811.4,423.3,811.4S35.3,637.7,35.3,423.3z
	 M320.7,258.3c-11.5,6.4-18.6,18.6-18.6,31.7v266.8c0,13.2,7.1,25.3,18.6,31.7c11.5,6.4,25.5,6.2,36.8-0.8l218.3-133.4
	c10.8-6.7,17.4-18.3,17.4-31.1c0-12.7-6.7-24.4-17.4-31.1L357.6,258.7c-11.2-6.8-25.3-7.1-36.8-0.8V258.3z"/>
</svg>
