<?xml version="1.0" encoding="utf-8"?>
<!-- Generator: Adobe Illustrator 27.2.0, SVG Export Plug-In . SVG Version: 6.00 Build 0)  -->
<svg version="1.1" id="Layer_1" xmlns="http://www.w3.org/2000/svg" xmlns:xlink="http://www.w3.org/1999/xlink" x="0px" y="0px"
	 viewBox="0 0 512 512" style="enable-background:new 0 0 512 512;" xml:space="preserve">
<style type="text/css">
	.st0{fill:none;}
</style>
<g>
	<g>
		<g>
			<path d="M204.3,173.2c5.6,0,11-2.9,13.9-8.1c4.4-7.7,1.7-17.4-6-21.8l-43.8-25L194.3,73c4.4-7.7,1.7-17.4-6-21.8
				c-7.7-4.4-17.4-1.7-21.8,6l-33.8,59.3c-4.4,7.7-1.7,17.4,6,21.8l57.7,32.9C198.9,172.6,201.6,173.2,204.3,173.2z"/>
		</g>
		<g>
			<path d="M256,462.9c104.8,0,190-85.2,190-190c0-104.8-85.2-190-190-190c-32.2,0-64,8.2-91.9,23.7c-7.7,4.3-10.5,14-6.2,21.7
				c4.3,7.7,14,10.5,21.7,6.2c23.2-12.9,49.7-19.7,76.4-19.7c87.1,0,158,70.9,158,158c0,87.1-70.9,158-158,158
				c-87.1,0-158-70.9-158-158c0-8.8-7.2-16-16-16s-16,7.2-16,16C66,377.7,151.2,462.9,256,462.9z"/>
		</g>
	</g>
	<g>
		<path d="M215.8,267c4.8,0,8.4-1.5,10.8-4.6c2.4-3.1,3.6-7.4,3.6-12.8c0-4.6-1.3-8.5-3.8-11.6c-2.5-3.1-6-4.7-10.3-4.7
			c-3.6,0-6.6,1.4-9.1,4.1c-2.4,2.7-3.7,6.3-3.7,10.7h-23l-0.2-0.5c-0.3-9.6,3.1-17.4,10.1-23.5c7-6.1,15.6-9.2,25.9-9.2
			c11.5,0,20.7,3,27.6,8.9c6.9,6,10.3,14.4,10.3,25.5c0,5.6-1.5,10.8-4.5,15.4c-3,4.7-7.1,8.3-12.3,10.9c5.8,2.4,10.4,6,13.6,10.9
			c3.2,4.9,4.8,10.8,4.8,17.8c0,11.1-3.7,19.8-11.1,26.1c-7.4,6.3-16.9,9.5-28.5,9.5c-10.1,0-18.9-3-26.4-9
			c-7.5-6-11.1-14.5-10.8-25.6l0.2-0.5h22.9c0,4.7,1.3,8.7,4,11.9c2.7,3.2,6,4.8,10.1,4.8c4.8,0,8.6-1.6,11.6-4.9
			c2.9-3.3,4.4-7.5,4.4-12.6c0-6.6-1.4-11.4-4.1-14.5c-2.8-3.1-6.7-4.6-12-4.6h-12.3V267H215.8z"/>
		<path d="M343.7,294c0,14.3-3.4,25.5-10.3,33.6c-6.8,8.1-15.9,12.2-27,12.2c-11.3,0-20.5-4.1-27.3-12.2
			c-6.9-8.1-10.3-19.3-10.3-33.6v-33.3c0-14.2,3.4-25.4,10.3-33.6c6.8-8.2,15.9-12.3,27.2-12.3c11.2,0,20.3,4.1,27.2,12.3
			c6.9,8.2,10.3,19.4,10.3,33.6V294z M320,258.6c0-8-1.2-14.2-3.7-18.7c-2.5-4.5-5.9-6.7-10.1-6.7c-4.4,0-7.8,2.2-10.2,6.7
			c-2.4,4.5-3.6,10.7-3.6,18.7v37.3c0,8.2,1.2,14.5,3.7,18.9c2.4,4.4,5.9,6.6,10.3,6.6c4.3,0,7.6-2.2,10.1-6.6s3.6-10.7,3.6-18.9
			V258.6z"/>
	</g>
</g>
</svg>
